<svg width="16" height="16" viewBox="0 0 16 16" fill="none" xmlns="http://www.w3.org/2000/svg">
<path d="M12.6667 14V10M10.6667 12H14.6667M14.6667 6.66667H1.33334M14.6667 8V5.46667C14.6667 4.71993 14.6667 4.34656 14.5213 4.06135C14.3935 3.81046 14.1895 3.60649 13.9387 3.47866C13.6534 3.33333 13.2801 3.33333 12.5333 3.33333H3.46667C2.71993 3.33333 2.34656 3.33333 2.06135 3.47866C1.81047 3.60649 1.60649 3.81046 1.47866 4.06134C1.33334 4.34656 1.33334 4.71993 1.33334 5.46667V10.5333C1.33334 11.2801 1.33334 11.6534 1.47866 11.9387C1.60649 12.1895 1.81047 12.3935 2.06135 12.5213C2.34656 12.6667 2.71993 12.6667 3.46667 12.6667H8" stroke="#00FFF0" stroke-width="1.33333" stroke-linecap="round" stroke-linejoin="round"/>
</svg>
