<svg width="16" height="16" viewBox="0 0 16 16" fill="none" xmlns="http://www.w3.org/2000/svg">
<path d="M4.66659 14H11.3333M7.99992 2V14M1.99992 4.66667H3.33325C4.66659 4.66667 6.66659 4 7.99992 3.33333C9.33325 4 11.3333 4.66667 12.6666 4.66667H13.9999M10.6666 10.6667L12.6666 5.33333L14.6666 10.6667C14.0866 11.1 13.3866 11.3333 12.6666 11.3333C11.9466 11.3333 11.2466 11.1 10.6666 10.6667ZM1.33325 10.6667L3.33325 5.33333L5.33325 10.6667C4.75325 11.1 4.05325 11.3333 3.33325 11.3333C2.61325 11.3333 1.91325 11.1 1.33325 10.6667Z" stroke="white" stroke-opacity="0.8" stroke-width="1.33" stroke-linecap="round" stroke-linejoin="round"/>
</svg>
