<svg width="16" height="16" viewBox="0 0 16 16" fill="none" xmlns="http://www.w3.org/2000/svg">
<path d="M10.6666 14V12.6667C10.6666 11.9594 10.3856 11.2811 9.88554 10.781C9.38544 10.281 8.70716 10 7.99992 10H3.99992C3.29267 10 2.6144 10.281 2.1143 10.781C1.6142 11.2811 1.33325 11.9594 1.33325 12.6667V14M14.6666 14V12.6667C14.6661 12.0758 14.4695 11.5018 14.1075 11.0349C13.7455 10.5679 13.2387 10.2344 12.6666 10.0867M10.6666 2.08667C11.2402 2.23353 11.7486 2.56713 12.1117 3.03487C12.4747 3.50261 12.6718 4.07789 12.6718 4.67C12.6718 5.26211 12.4747 5.83739 12.1117 6.30513C11.7486 6.77287 11.2402 7.10647 10.6666 7.25333M8.66659 4.66667C8.66659 6.13943 7.47268 7.33333 5.99992 7.33333C4.52716 7.33333 3.33325 6.13943 3.33325 4.66667C3.33325 3.19391 4.52716 2 5.99992 2C7.47268 2 8.66659 3.19391 8.66659 4.66667Z" stroke="white" stroke-opacity="0.8" stroke-width="1.33" stroke-linecap="round" stroke-linejoin="round"/>
</svg>
