<svg width="16" height="16" viewBox="0 0 16 16" fill="none" xmlns="http://www.w3.org/2000/svg">
<path d="M7.52178 2.30221C7.67543 1.99092 7.75226 1.83527 7.85656 1.78554C7.94731 1.74228 8.05273 1.74228 8.14348 1.78554C8.24778 1.83527 8.32461 1.99092 8.47827 2.30221L9.93605 5.25552C9.98141 5.34742 10.0041 5.39337 10.0372 5.42905C10.0666 5.46064 10.1018 5.48623 10.1409 5.50442C10.185 5.52495 10.2358 5.53236 10.3372 5.54718L13.598 6.02381C13.9414 6.074 14.1131 6.09909 14.1925 6.18296C14.2617 6.25593 14.2942 6.3562 14.281 6.45585C14.2659 6.57039 14.1416 6.69145 13.893 6.93359L11.5343 9.23095C11.4608 9.30256 11.424 9.33837 11.4003 9.38098C11.3793 9.4187 11.3658 9.46014 11.3606 9.50301C11.3547 9.55142 11.3634 9.602 11.3808 9.70316L11.9373 12.9481C11.996 13.2903 12.0254 13.4615 11.9702 13.563C11.9222 13.6514 11.8369 13.7133 11.7381 13.7317C11.6244 13.7527 11.4708 13.6719 11.1634 13.5103L8.24826 11.9772C8.15743 11.9295 8.11202 11.9056 8.06417 11.8962C8.02181 11.8879 7.97824 11.8879 7.93587 11.8962C7.88803 11.9056 7.84261 11.9295 7.75178 11.9772L4.83663 13.5103C4.52929 13.6719 4.37562 13.7527 4.26199 13.7317C4.16313 13.7133 4.07783 13.6514 4.02984 13.563C3.97468 13.4615 4.00403 13.2903 4.06273 12.9481L4.61927 9.70316C4.63662 9.602 4.64529 9.55142 4.63942 9.50301C4.63423 9.46014 4.62075 9.4187 4.59975 9.38098C4.57602 9.33837 4.53926 9.30256 4.46573 9.23095L2.10705 6.93359C1.85845 6.69145 1.73415 6.57039 1.71903 6.45585C1.70587 6.3562 1.73838 6.25593 1.80751 6.18296C1.88697 6.09909 2.05866 6.074 2.40204 6.02381L5.66288 5.54718C5.76429 5.53236 5.815 5.52495 5.85916 5.50442C5.89825 5.48623 5.93345 5.46064 5.9628 5.42905C5.99595 5.39337 6.01863 5.34742 6.06399 5.25552L7.52178 2.30221Z" stroke="white" stroke-opacity="0.4" stroke-width="1.33333" stroke-linecap="round" stroke-linejoin="round"/>
</svg>
