<svg width="16" height="16" viewBox="0 0 16 16" fill="none" xmlns="http://www.w3.org/2000/svg">
<g clip-path="url(#clip0_5448_2684)">
<path d="M12.0599 6.91333C12.6901 7.14828 13.2509 7.53835 13.6904 8.04746C14.1299 8.55658 14.434 9.16829 14.5744 9.82604C14.7149 10.4838 14.6872 11.1663 14.494 11.8106C14.3007 12.4548 13.9482 13.0399 13.4689 13.5117C12.9896 13.9836 12.3991 14.327 11.7519 14.5102C11.1047 14.6933 10.4219 14.7103 9.76637 14.5596C9.1109 14.4089 8.504 14.0954 8.0018 13.648C7.49961 13.2006 7.11834 12.6338 6.89325 12M4.66659 4H5.33325V6.66667M11.1399 9.25333L11.6066 9.72667L9.72659 11.6067M9.33325 5.33333C9.33325 7.54247 7.54239 9.33333 5.33325 9.33333C3.12411 9.33333 1.33325 7.54247 1.33325 5.33333C1.33325 3.12419 3.12411 1.33333 5.33325 1.33333C7.54239 1.33333 9.33325 3.12419 9.33325 5.33333Z" stroke="#00FFF0" stroke-width="1.33" stroke-linecap="round" stroke-linejoin="round"/>
</g>
<defs>
<clipPath id="clip0_5448_2684">
<rect width="16" height="16" fill="white"/>
</clipPath>
</defs>
</svg>
