<svg width="16" height="16" viewBox="0 0 16 16" fill="none" xmlns="http://www.w3.org/2000/svg">
<path d="M7.33333 8.66667H4.66667M12.6667 6H10M2 2V12.6667C2 13.0203 2.14048 13.3594 2.39052 13.6095C2.64057 13.8595 2.97971 14 3.33333 14H14M10.6667 3.33333H12C12.3682 3.33333 12.6667 3.63181 12.6667 4V10.6667C12.6667 11.0349 12.3682 11.3333 12 11.3333H10.6667C10.2985 11.3333 10 11.0349 10 10.6667V4C10 3.63181 10.2985 3.33333 10.6667 3.33333ZM5.33333 5.33333H6.66667C7.03486 5.33333 7.33333 5.63181 7.33333 6V10.6667C7.33333 11.0349 7.03486 11.3333 6.66667 11.3333H5.33333C4.96514 11.3333 4.66667 11.0349 4.66667 10.6667V6C4.66667 5.63181 4.96514 5.33333 5.33333 5.33333Z" stroke="white" stroke-opacity="0.8" stroke-width="1.33" stroke-linecap="round" stroke-linejoin="round"/>
</svg>
