<svg width="24" height="24" viewBox="0 0 24 24" fill="none" xmlns="http://www.w3.org/2000/svg">
<g clip-path="url(#clip0_5571_2894)">
<path d="M12 24C18.6274 24 24 18.6274 24 12C24 5.37258 18.6274 0 12 0C5.37258 0 0 5.37258 0 12C0 18.6274 5.37258 24 12 24Z" fill="#2D374B"/>
<path d="M11.1998 3.40986C11.6949 3.13004 12.305 3.13004 12.8001 3.40986L19.2001 7.0268C19.695 7.30652 19.9999 7.82336 19.9999 8.38272V15.6173C19.9999 16.1766 19.695 16.6935 19.2001 16.9732L12.8001 20.5901C12.305 20.87 11.6949 20.87 11.1998 20.5901L4.79984 16.9732C4.30492 16.6935 4 16.1766 4 15.6173V8.38272C4 7.82336 4.30492 7.30652 4.79984 7.0268L11.1998 3.40986Z" fill="#96BEDC"/>
<path d="M11.76 4.34804C11.9251 4.25472 12.1285 4.25472 12.2936 4.34804L18.6269 7.92836C18.7918 8.0216 18.8934 8.19388 18.8934 8.38028V15.5414C18.8934 15.7278 18.7918 15.9001 18.6269 15.9934L12.2936 19.5737C12.1285 19.667 11.9251 19.667 11.76 19.5737L5.42672 15.9934C5.2618 15.9001 5.16016 15.7278 5.16016 15.5414V8.38028C5.16016 8.19388 5.2618 8.0216 5.42672 7.92836L11.76 4.34804Z" fill="#2D374B"/>
<path d="M5.75632 17.5138L4.6144 16.8684C4.23476 16.6538 4 16.2515 4 15.8154L8.29008 9.39115C8.75796 8.69051 9.55548 8.26823 10.4107 8.26823H11.6466L5.75632 17.5138Z" fill="white"/>
<path d="M8.48251 19.0545L6.42871 17.8938L12.4132 8.26823H15.0065L8.48251 19.0545Z" fill="white"/>
<path fill-rule="evenodd" clip-rule="evenodd" d="M16.8215 17.0139L14.5452 18.3007L12.0667 14.5052L13.5867 12.013L16.8215 17.0139ZM18.8933 14.4393V15.5414C18.8933 15.7278 18.7917 15.9001 18.6268 15.9934L17.4703 16.6472L14.0267 11.2367L15.3466 9.07072L18.8933 14.4393Z" fill="#28A0F0"/>
</g>
<defs>
<clipPath id="clip0_5571_2894">
<rect width="24" height="24" fill="white"/>
</clipPath>
</defs>
</svg>
