<svg width="24" height="24" viewBox="0 0 24 24" fill="none" xmlns="http://www.w3.org/2000/svg">
<g clip-path="url(#clip0_5571_2915)">
<path d="M12.0856 23.9999C18.5831 23.9999 23.8503 18.6273 23.8503 12C23.8503 5.37256 18.5831 0 12.0856 0C5.58816 0 0.320923 5.37256 0.320923 12C0.320923 18.6273 5.58816 23.9999 12.0856 23.9999Z" fill="black"/>
<path fill-rule="evenodd" clip-rule="evenodd" d="M6.77196 5.91215C6.87008 5.81606 6.99963 5.75999 7.13309 5.75999H19.5923C19.82 5.75999 19.9338 6.04027 19.7729 6.20443L17.3116 8.71487C17.2174 8.81097 17.0879 8.86703 16.9505 8.86703H4.4913C4.26362 8.86703 4.14978 8.58676 4.31073 8.4226L6.77196 5.91215ZM6.77196 15.285C6.86617 15.1889 6.99568 15.1329 7.13309 15.1329H19.5923C19.82 15.1329 19.9338 15.4132 19.7729 15.5773L17.3116 18.0878C17.2174 18.1839 17.0879 18.2399 16.9505 18.2399H4.4913C4.26362 18.2399 4.14978 17.9596 4.31073 17.7955L6.77196 15.285ZM16.9505 10.4166C17.0879 10.4166 17.2174 10.4726 17.3116 10.5687L19.7729 13.0792C19.9338 13.2433 19.82 13.5236 19.5923 13.5236H7.13309C6.99568 13.5236 6.86617 13.4675 6.77196 13.3715L4.31073 10.861C4.14978 10.6968 4.26362 10.4166 4.4913 10.4166H16.9505Z" fill="url(#paint0_linear_5571_2915)"/>
</g>
<defs>
<linearGradient id="paint0_linear_5571_2915" x1="16.5049" y1="3.25005" x2="7.61073" y2="19.9519" gradientUnits="userSpaceOnUse">
<stop stop-color="#00FFA3"/>
<stop offset="1" stop-color="#DC1FFF"/>
</linearGradient>
<clipPath id="clip0_5571_2915">
<rect width="24" height="24" fill="white"/>
</clipPath>
</defs>
</svg>
