<svg width="24" height="24" viewBox="0 0 24 24" fill="none" xmlns="http://www.w3.org/2000/svg">
<g clip-path="url(#clip0_5571_2919)">
<path d="M12 24C18.6274 24 24 18.6274 24 12C24 5.37258 18.6274 0 12 0C5.37258 0 0 5.37258 0 12C0 18.6274 5.37258 24 12 24Z" fill="#6FBCF0"/>
<path fill-rule="evenodd" clip-rule="evenodd" d="M6.2437 18.2438C7.4437 20.325 9.59995 21.5719 12 21.5719C14.4 21.5719 16.5562 20.325 17.7562 18.2438C18.9562 16.1625 18.9562 13.6781 17.7562 11.5969L12.6937 2.82188C12.3843 2.2875 11.6156 2.2875 11.3062 2.82188L6.2437 11.5969C5.03433 13.6781 5.03433 16.1625 6.2437 18.2438ZM10.575 6.99375L11.6531 5.11875C11.8031 4.85625 12.1968 4.85625 12.3468 5.11875L16.5 12.3188C17.2593 13.6406 17.4093 15.1688 16.9312 16.575C16.8843 16.35 16.8093 16.1156 16.7156 15.8813C16.1437 14.4281 14.8406 13.3125 12.8531 12.5625C11.4843 12.0469 10.6125 11.2781 10.2656 10.2938C9.81558 9.01875 10.2937 7.63125 10.575 6.99375ZM8.72808 10.1813L7.49995 12.3188C6.56245 13.95 6.56245 15.8906 7.49995 17.5219C8.43745 19.1531 10.125 20.1188 12 20.1188C13.2468 20.1188 14.4093 19.6875 15.3281 18.9281C15.45 18.6281 15.8156 17.5313 15.3562 16.3969C14.9343 15.3469 13.9218 14.5125 12.3375 13.9125C10.5562 13.2375 9.3937 12.1781 8.88745 10.7719C8.82183 10.575 8.77495 10.3781 8.72808 10.1813Z" fill="white"/>
</g>
<defs>
<clipPath id="clip0_5571_2919">
<rect width="24" height="24" fill="white"/>
</clipPath>
</defs>
</svg>
