<svg width="14" height="16" viewBox="0 0 14 16" fill="none" xmlns="http://www.w3.org/2000/svg">
<path d="M5.23609 14C5.70618 14.4149 6.32367 14.6667 6.99997 14.6667C7.67627 14.6667 8.29377 14.4149 8.76386 14M11 5.33333C11 4.27247 10.5785 3.25505 9.8284 2.5049C9.07825 1.75476 8.06084 1.33333 6.99997 1.33333C5.93911 1.33333 4.92169 1.75476 4.17154 2.5049C3.4214 3.25505 2.99997 4.27247 2.99997 5.33333C2.99997 7.39346 2.48029 8.80397 1.89975 9.73694C1.41006 10.5239 1.16521 10.9174 1.17419 11.0272C1.18413 11.1487 1.20988 11.1951 1.30782 11.2677C1.39628 11.3333 1.79503 11.3333 2.59254 11.3333H11.4074C12.2049 11.3333 12.6037 11.3333 12.6921 11.2677C12.7901 11.1951 12.8158 11.1487 12.8258 11.0272C12.8347 10.9174 12.5899 10.5239 12.1002 9.73694C11.5197 8.80397 11 7.39346 11 5.33333Z" stroke="white" stroke-width="1.33333" stroke-linecap="round" stroke-linejoin="round"/>
</svg>
