<svg width="16" height="16" viewBox="0 0 16 16" fill="none" xmlns="http://www.w3.org/2000/svg">
<path d="M8.00004 10C9.10461 10 10 9.10457 10 8C10 6.89543 9.10461 6 8.00004 6C6.89547 6 6.00004 6.89543 6.00004 8C6.00004 9.10457 6.89547 10 8.00004 10Z" stroke="white" stroke-width="1.33333" stroke-linecap="round" stroke-linejoin="round"/>
<path d="M12.4849 9.81818C12.4042 10.001 12.3801 10.2038 12.4158 10.4004C12.4514 10.597 12.5452 10.7784 12.6849 10.9212L12.7213 10.9576C12.834 11.0701 12.9234 11.2038 12.9844 11.351C13.0454 11.4981 13.0768 11.6559 13.0768 11.8152C13.0768 11.9744 13.0454 12.1322 12.9844 12.2793C12.9234 12.4265 12.834 12.5602 12.7213 12.6727C12.6087 12.7854 12.475 12.8748 12.3278 12.9358C12.1807 12.9968 12.023 13.0282 11.8637 13.0282C11.7044 13.0282 11.5467 12.9968 11.3995 12.9358C11.2524 12.8748 11.1187 12.7854 11.0061 12.6727L10.9697 12.6364C10.8269 12.4966 10.6455 12.4029 10.4489 12.3673C10.2523 12.3316 10.0495 12.3557 9.86671 12.4364C9.68745 12.5132 9.53458 12.6408 9.42689 12.8034C9.31921 12.966 9.26142 13.1565 9.26065 13.3515V13.4545C9.26065 13.776 9.13294 14.0843 8.90562 14.3116C8.67831 14.539 8.37 14.6667 8.04853 14.6667C7.72705 14.6667 7.41874 14.539 7.19143 14.3116C6.96411 14.0843 6.8364 13.776 6.8364 13.4545V13.4C6.83171 13.1994 6.76678 13.0048 6.65005 12.8416C6.53332 12.6784 6.37018 12.5541 6.18186 12.4848C5.99906 12.4042 5.79629 12.3801 5.59968 12.4158C5.40308 12.4514 5.22166 12.5451 5.07883 12.6848L5.04247 12.7212C4.92989 12.8339 4.79621 12.9233 4.64906 12.9843C4.50191 13.0453 4.34418 13.0767 4.18489 13.0767C4.0256 13.0767 3.86787 13.0453 3.72072 12.9843C3.57357 12.9233 3.43989 12.8339 3.32731 12.7212C3.21461 12.6086 3.12521 12.475 3.06421 12.3278C3.00321 12.1807 2.97181 12.0229 2.97181 11.8636C2.97181 11.7043 3.00321 11.5466 3.06421 11.3995C3.12521 11.2523 3.21461 11.1186 3.32731 11.0061L3.36368 10.9697C3.5034 10.8269 3.59712 10.6454 3.63277 10.4488C3.66842 10.2522 3.64435 10.0495 3.56368 9.86667C3.48685 9.68741 3.35929 9.53453 3.19669 9.42685C3.03409 9.31917 2.84355 9.26138 2.64853 9.26061H2.5455C2.22402 9.26061 1.91571 9.1329 1.6884 8.90558C1.46108 8.67827 1.33337 8.36996 1.33337 8.04848C1.33337 7.72701 1.46108 7.4187 1.6884 7.19138C1.91571 6.96407 2.22402 6.83636 2.5455 6.83636H2.60004C2.80064 6.83167 2.9952 6.76674 3.1584 6.65001C3.32161 6.53327 3.44593 6.37014 3.51519 6.18182C3.59587 5.99902 3.61993 5.79625 3.58429 5.59964C3.54864 5.40304 3.45491 5.22162 3.31519 5.07879L3.27883 5.04242C3.16613 4.92985 3.07673 4.79617 3.01573 4.64902C2.95473 4.50187 2.92333 4.34414 2.92333 4.18485C2.92333 4.02556 2.95473 3.86783 3.01573 3.72068C3.07673 3.57353 3.16613 3.43984 3.27883 3.32727C3.3914 3.21457 3.52509 3.12517 3.67223 3.06417C3.81938 3.00317 3.97711 2.97177 4.1364 2.97177C4.2957 2.97177 4.45343 3.00317 4.60057 3.06417C4.74772 3.12517 4.88141 3.21457 4.99398 3.32727L5.03034 3.36364C5.17318 3.50335 5.3546 3.59708 5.5512 3.63273C5.7478 3.66838 5.95058 3.64431 6.13337 3.56364H6.18186C6.36111 3.48681 6.51399 3.35924 6.62167 3.19664C6.72936 3.03404 6.78714 2.84351 6.78792 2.64848V2.54545C6.78792 2.22398 6.91563 1.91567 7.14294 1.68835C7.37026 1.46104 7.67857 1.33333 8.00004 1.33333C8.32152 1.33333 8.62982 1.46104 8.85714 1.68835C9.08446 1.91567 9.21216 2.22398 9.21216 2.54545V2.6C9.21294 2.79502 9.27073 2.98556 9.37841 3.14816C9.48609 3.31076 9.63897 3.43832 9.81822 3.51515C10.001 3.59583 10.2038 3.61989 10.4004 3.58424C10.597 3.5486 10.7784 3.45487 10.9213 3.31515L10.9576 3.27879C11.0702 3.16609 11.2039 3.07668 11.351 3.01568C11.4982 2.95468 11.6559 2.92329 11.8152 2.92329C11.9745 2.92329 12.1322 2.95468 12.2794 3.01568C12.4265 3.07668 12.5602 3.16609 12.6728 3.27879C12.7855 3.39136 12.8749 3.52504 12.9359 3.67219C12.9969 3.81934 13.0283 3.97707 13.0283 4.13636C13.0283 4.29565 12.9969 4.45338 12.9359 4.60053C12.8749 4.74768 12.7855 4.88136 12.6728 4.99394L12.6364 5.0303C12.4967 5.17314 12.403 5.35455 12.3673 5.55116C12.3317 5.74776 12.3557 5.95053 12.4364 6.13333V6.18182C12.5132 6.36107 12.6408 6.51395 12.8034 6.62163C12.966 6.72931 13.1565 6.7871 13.3516 6.78788H13.4546C13.7761 6.78788 14.0844 6.91558 14.3117 7.1429C14.539 7.37022 14.6667 7.67852 14.6667 8C14.6667 8.32147 14.539 8.62978 14.3117 8.8571C14.0844 9.08441 13.7761 9.21212 13.4546 9.21212H13.4C13.205 9.2129 13.0145 9.27069 12.8519 9.37837C12.6893 9.48605 12.5617 9.63893 12.4849 9.81818Z" stroke="white" stroke-width="1.33333" stroke-linecap="round" stroke-linejoin="round"/>
</svg>
