<svg width="96" height="21" viewBox="0 0 96 21" fill="none" xmlns="http://www.w3.org/2000/svg">
<g clip-path="url(#clip0_5448_2670)">
<path d="M10.0869 0.622363C10.0869 0.271444 9.80217 -0.0151179 9.45194 0.00697268C8.3445 0.076825 7.25467 0.329039 6.22682 0.754789C5.00303 1.2617 3.89104 2.0047 2.95438 2.94136C2.01773 3.87802 1.27474 4.98998 0.76782 6.21378C0.260906 7.43761 -1.15803e-07 8.74926 0 10.0739C1.15803e-07 11.3985 0.260906 12.7102 0.767823 13.934C1.27474 15.1578 2.01773 16.2698 2.95438 17.2064C3.89104 18.1431 5.00303 18.8861 6.22682 19.393C7.25467 19.8187 8.3445 20.071 9.45194 20.1408C9.80217 20.1629 10.0869 19.8763 10.0869 19.5254V0.622363Z" fill="url(#paint0_linear_5448_2670)"/>
<path d="M15.4878 2.6874C15.4878 2.33648 15.2028 2.04928 14.8531 2.07816C13 2.23119 11.252 3.05054 9.92779 4.40156C8.45318 5.90596 7.62476 7.94635 7.62476 10.0739C7.62476 12.2014 8.45318 14.2418 9.92779 15.7462C11.252 17.0972 13 17.9166 14.8531 18.0696C15.2028 18.0985 15.4878 17.8113 15.4878 17.4604V2.6874Z" fill="url(#paint1_linear_5448_2670)"/>
<path d="M37.2473 7.11097C38.2814 7.11103 39.089 7.43799 39.6711 8.09046V7.23206H42.0208V15.3336H39.7766V14.4C39.1945 15.1026 38.3514 15.4537 37.2473 15.4537C36.4845 15.4537 35.7916 15.2833 35.1692 14.942C34.5569 14.6007 34.0744 14.1136 33.7229 13.4811C33.3718 12.8487 33.1966 12.1159 33.1965 11.2828C33.1965 10.4498 33.3719 9.71695 33.7229 9.0846C34.0744 8.45213 34.5569 7.96499 35.1692 7.62366C35.7917 7.28239 36.4845 7.11097 37.2473 7.11097ZM58.1438 7.11097C59.178 7.11097 59.9864 7.4379 60.5686 8.09046V7.23206H62.9172V15.3336H60.6741V14.4C60.0919 15.1028 59.2482 15.4537 58.1438 15.4537C57.381 15.4537 56.6881 15.2833 56.0657 14.942C55.4534 14.6007 54.9718 14.1135 54.6204 13.4811C54.2692 12.8487 54.093 12.116 54.093 11.2828C54.093 10.4496 54.2692 9.71609 54.6204 9.08362C54.9718 8.45145 55.4536 7.9649 56.0657 7.62366C56.6881 7.28237 57.381 7.111 58.1438 7.11097ZM66.5686 13.0446C66.5686 13.5163 66.679 13.8776 66.8997 14.1285C67.1207 14.3695 67.4523 14.4899 67.8938 14.4899C68.1749 14.4898 68.4159 14.4454 68.6165 14.3551L68.6917 15.2428C68.3805 15.3532 68.0591 15.4088 67.7278 15.4088C67.0152 15.4088 66.463 15.2078 66.0715 14.8063C65.6903 14.4048 65.4993 13.8479 65.4993 13.1354V4.15979H66.5686V13.0446ZM73.1467 7.35218C73.7891 7.35219 74.3662 7.48836 74.8782 7.7594C75.4001 8.02043 75.8272 8.40659 76.1584 8.91858V7.41272H77.2278V15.3336H76.2034V13.7672C75.882 14.2993 75.455 14.7059 74.9231 14.9869C74.401 15.2679 73.8092 15.4088 73.1467 15.4088C72.4039 15.4088 71.7314 15.2383 71.1292 14.8971C70.5268 14.5558 70.0544 14.0788 69.7131 13.4664C69.3716 12.8541 69.2014 12.1557 69.2014 11.3727C69.2015 10.5898 69.3717 9.89218 69.7131 9.27991C70.0544 8.6675 70.5268 8.19519 71.1292 7.8639C71.7314 7.52273 72.4039 7.35218 73.1467 7.35218ZM81.2747 8.91858C81.6059 8.40666 82.0274 8.02042 82.5393 7.7594C83.0613 7.48834 83.6437 7.35218 84.2864 7.35218C85.0289 7.35223 85.7017 7.52266 86.304 7.8639C86.9063 8.19516 87.3775 8.66758 87.719 9.27991C88.0602 9.8922 88.2316 10.5898 88.2317 11.3727C88.2317 12.1557 88.0602 12.8541 87.719 13.4664C87.3775 14.0786 86.9062 14.5558 86.304 14.8971C85.7017 15.2383 85.0289 15.4088 84.2864 15.4088C83.6239 15.4088 83.0262 15.268 82.4944 14.9869C81.9722 14.7059 81.5498 14.2993 81.2288 13.7672V15.3336H80.2053V4.15979H81.2747V8.91858ZM92.7297 7.35218C93.2417 7.35218 93.7539 7.4226 94.2659 7.56311C94.7779 7.69361 95.2002 7.86958 95.5315 8.09046L95.0637 8.94886C94.4111 8.49718 93.6332 8.27112 92.7297 8.27112C92.0471 8.27116 91.5304 8.39155 91.179 8.63245C90.8379 8.87331 90.6673 9.18936 90.6672 9.58069C90.6672 9.88187 90.7627 10.1236 90.9534 10.3043C91.1541 10.4848 91.3997 10.6203 91.6907 10.7106C91.9819 10.7909 92.3838 10.8761 92.8958 10.9664C93.528 11.0869 94.0347 11.2073 94.4163 11.3278C94.7978 11.4482 95.1247 11.6538 95.3958 11.945C95.6668 12.2361 95.802 12.638 95.802 13.15C95.802 13.8426 95.5109 14.3947 94.929 14.8063C94.3567 15.2078 93.5584 15.4088 92.5344 15.4088C91.892 15.4088 91.2743 15.318 90.6819 15.1373C90.1 14.9466 89.643 14.7113 89.3118 14.4303L89.7932 13.5866C90.1244 13.8475 90.5413 14.0634 91.0432 14.234C91.5453 14.3946 92.0675 14.4752 92.6096 14.4752C93.3324 14.4752 93.8651 14.365 94.2063 14.1442C94.5576 13.9133 94.7326 13.5918 94.7327 13.1803C94.7327 12.8892 94.6372 12.6632 94.4465 12.5026C94.2559 12.3319 94.0151 12.2059 93.7239 12.1256C93.4327 12.0353 93.0464 11.95 92.5647 11.8698C91.9223 11.7493 91.4045 11.6289 91.0129 11.5084C90.6216 11.3779 90.2851 11.162 90.0042 10.861C89.7332 10.5598 89.5979 10.1429 89.5979 9.61097C89.598 8.94852 89.8741 8.40658 90.426 7.98499C90.978 7.56339 91.746 7.35223 92.7297 7.35218ZM26.5598 10.485L29.9924 7.23206H32.7942L29.4202 10.6657L33.095 15.3336H30.2493L27.6887 12.1559L26.5598 13.2701V15.3336H24.2102V4.15979H26.5598V10.485ZM49.1194 7.11097C50.1235 7.11097 50.9319 7.41291 51.5442 8.01526C52.1665 8.61753 52.4777 9.51067 52.4778 10.695V15.3336H50.1282V11.0573C50.1282 10.415 49.9883 9.93781 49.7073 9.62659C49.4263 9.30541 49.0195 9.14425 48.4875 9.14417C47.8954 9.14417 47.423 9.33034 47.0715 9.70179C46.7205 10.0632 46.5442 10.6051 46.5442 11.3278V15.3336H44.1956V7.23206H46.4387V8.1803C46.7501 7.83898 47.1372 7.5778 47.5989 7.3971C48.0607 7.20648 48.5675 7.11099 49.1194 7.11097ZM73.2366 8.28577C72.6745 8.28583 72.1677 8.41644 71.7161 8.67737C71.2744 8.92826 70.9232 9.28974 70.6624 9.76136C70.4112 10.2331 70.2854 10.7705 70.2854 11.3727C70.2854 11.975 70.4112 12.5122 70.6624 12.984C70.9232 13.4558 71.2743 13.8226 71.7161 14.0836C72.1677 14.3345 72.6745 14.4605 73.2366 14.4606C73.7886 14.4606 74.286 14.3346 74.7278 14.0836C75.1795 13.8226 75.5303 13.4558 75.7815 12.984C76.0423 12.5122 76.1731 11.975 76.1731 11.3727C76.173 10.7705 76.0423 10.2331 75.7815 9.76136C75.5304 9.28974 75.1794 8.92826 74.7278 8.67737C74.286 8.41638 73.7886 8.28577 73.2366 8.28577ZM84.2112 8.28577C83.6489 8.28577 83.1415 8.41634 82.6897 8.67737C82.248 8.92827 81.8968 9.28972 81.636 9.76136C81.3849 10.2331 81.2591 10.7705 81.259 11.3727C81.259 11.975 81.3849 12.5122 81.636 12.984C81.8968 13.4558 82.2479 13.8226 82.6897 14.0836C83.1415 14.3346 83.6489 14.4606 84.2112 14.4606C84.7631 14.4605 85.2654 14.3345 85.717 14.0836C86.1687 13.8226 86.5196 13.4557 86.7708 12.984C87.0315 12.5122 87.1624 11.9749 87.1624 11.3727C87.1623 10.7705 87.0315 10.2331 86.7708 9.76136C86.5196 9.28974 86.1686 8.92828 85.717 8.67737C85.2654 8.41641 84.7631 8.28584 84.2112 8.28577ZM37.6536 9.0387C37.0512 9.0387 36.5539 9.2443 36.1624 9.65589C35.7708 10.0574 35.5754 10.6002 35.5754 11.2828C35.5755 11.9654 35.7709 12.5129 36.1624 12.9244C36.5539 13.326 37.0512 13.526 37.6536 13.526C38.2458 13.526 38.7377 13.3258 39.1292 12.9244C39.5207 12.5129 39.717 11.9655 39.717 11.2828C39.717 10.6002 39.5207 10.0574 39.1292 9.65589C38.7377 9.2445 38.2458 9.0387 37.6536 9.0387ZM58.551 9.0387C57.9488 9.0387 57.4513 9.24445 57.0598 9.65589C56.6683 10.0574 56.4729 10.6002 56.4729 11.2828C56.4729 11.9654 56.6683 12.5129 57.0598 12.9244C57.4513 13.3259 57.9488 13.526 58.551 13.526C59.1432 13.5259 59.6352 13.3259 60.0266 12.9244C60.4181 12.5129 60.6135 11.9654 60.6135 11.2828C60.6135 10.6002 60.4181 10.0574 60.0266 9.65589C59.6352 9.24444 59.1432 9.0388 58.551 9.0387Z" fill="url(#paint2_linear_5448_2670)"/>
</g>
<defs>
<linearGradient id="paint0_linear_5448_2670" x1="-0.122318" y1="22.2807" x2="15.6638" y2="-2.53374" gradientUnits="userSpaceOnUse">
<stop stop-color="#0194FF"/>
<stop offset="1" stop-color="#1FF8D1"/>
</linearGradient>
<linearGradient id="paint1_linear_5448_2670" x1="7.52941" y1="19.7705" x2="20.1681" y2="0.274657" gradientUnits="userSpaceOnUse">
<stop stop-color="#0194FF"/>
<stop offset="1" stop-color="#1FF8D1"/>
</linearGradient>
<linearGradient id="paint2_linear_5448_2670" x1="31.1931" y1="24.6103" x2="54.5876" y2="-5.23836" gradientUnits="userSpaceOnUse">
<stop stop-color="#1FF8EB"/>
<stop offset="1" stop-color="#01A4FF"/>
</linearGradient>
<clipPath id="clip0_5448_2670">
<rect width="96" height="20.1681" fill="white"/>
</clipPath>
</defs>
</svg>
