<svg width="16" height="16" viewBox="0 0 16 16" fill="none" xmlns="http://www.w3.org/2000/svg">
<g clip-path="url(#clip0_5467_2737)">
<path d="M3.54424 12.9589C3.94979 12.0035 4.89666 11.3333 6.00004 11.3333H10C11.1034 11.3333 12.0503 12.0035 12.4558 12.9589M10.6667 6.33333C10.6667 7.80609 9.4728 9 8.00004 9C6.52728 9 5.33337 7.80609 5.33337 6.33333C5.33337 4.86057 6.52728 3.66667 8.00004 3.66667C9.4728 3.66667 10.6667 4.86057 10.6667 6.33333ZM14.6667 8C14.6667 11.6819 11.6819 14.6667 8.00004 14.6667C4.31814 14.6667 1.33337 11.6819 1.33337 8C1.33337 4.3181 4.31814 1.33333 8.00004 1.33333C11.6819 1.33333 14.6667 4.3181 14.6667 8Z" stroke="#00FFF0" stroke-width="1.33" stroke-linecap="round" stroke-linejoin="round"/>
</g>
<defs>
<clipPath id="clip0_5467_2737">
<rect width="16" height="16" fill="white"/>
</clipPath>
</defs>
</svg>
